# xmcd
#
# Track frame offsets: 
#        182
#        13705
#        30190
#        45220
#        62605
#        77380
#        92677
#        108470
#        125957
#        146207
#        159130
#        176830
#
# Disc length: 2582 seconds
#
# Revision: 6
# Processed by: cddbd v1.5.2PL0 Copyright (c) Steve Scherf et al.
# Submitted via: ExactAudioCopyFreeDBPlugin 1.0
#
DISCID=8e0a140c
DTITLE=Ella Fitzgerald - The Ella Fitzgerald Song Books, Disc 15: Jero
DTITLE=me Kern
DYEAR=1993
DGENRE=Jazz
TTITLE0=Let's Begin
TTITLE1=A Fine Romance
TTITLE2=All The Things You Are
TTITLE3=I'll Be Hard To Handle
TTITLE4=You Couldn't Be Cuter
TTITLE5=She Didn't Say Yes
TTITLE6=I'm Old Fashioned
TTITLE7=Remind Me
TTITLE8=The Way You Look Tonight
TTITLE9=Yesterdays
TTITLE10=Can't Help Lovin' Dat Man
TTITLE11=Why Was I Born
EXTD=YEAR: 1963
EXTT0=
EXTT1=
EXTT2=
EXTT3=
EXTT4=
EXTT5=
EXTT6=
EXTT7=
EXTT8=
EXTT9=
EXTT10=
EXTT11=
PLAYORDER=
